# Blender 4.0.2
# www.blender.org
o cloud1
v -0.120325 -0.868429 0.077312
v -0.120325 -0.868429 0.077312
v -0.120325 -0.868429 0.077312
v -0.120325 -0.868429 0.077312
v -0.120325 -0.868429 0.077312
v -1.280737 -0.615794 -0.335648
v -1.280737 -0.615794 -0.335648
v -1.280737 -0.615794 -0.335648
v -1.280737 -0.615794 -0.335648
v -1.280737 -0.615794 -0.335648
v -1.280737 -0.615794 -0.335648
v -0.020696 -0.739429 0.503808
v -0.020696 -0.739429 0.503808
v -0.020696 -0.739429 0.503808
v -0.020696 -0.739429 0.503808
v -0.020696 -0.739429 0.503808
v -0.020696 -0.739429 0.503808
v -1.528326 -0.184173 0.524135
v -1.528326 -0.184173 0.524135
v -1.528326 -0.184173 0.524135
v -1.528326 -0.184173 0.524135
v -1.528326 -0.184173 0.524135
v -1.528326 -0.184173 0.524135
v -1.528326 -0.184173 0.524135
v -1.528326 -0.184173 0.524135
v -0.810140 1.037745 0.731909
v -0.810140 1.037745 0.731909
v -0.810140 1.037745 0.731909
v -0.810140 1.037745 0.731909
v -0.810140 1.037745 0.731909
v -0.810140 1.037745 0.731909
v -0.890432 1.201138 0.319341
v -0.890432 1.201138 0.319341
v -0.890432 1.201138 0.319341
v -0.890432 1.201138 0.319341
v -0.890432 1.201138 0.319341
v 1.358733 0.526722 -0.992975
v 1.358733 0.526722 -0.992975
v 1.358733 0.526722 -0.992975
v 1.358733 0.526722 -0.992975
v 1.358733 0.526722 -0.992975
v 1.431349 -0.514913 -0.321258
v 1.431349 -0.514913 -0.321258
v 1.431349 -0.514913 -0.321258
v 1.431349 -0.514913 -0.321258
v 1.431349 -0.514913 -0.321258
v 1.431349 -0.514913 -0.321258
v 0.878553 0.979393 -0.744367
v 0.878553 0.979393 -0.744367
v 0.878553 0.979393 -0.744367
v 0.878553 0.979393 -0.744367
v 0.878553 0.979393 -0.744367
v 0.878553 0.979393 -0.744367
v 0.673106 0.477944 0.562640
v 0.673106 0.477944 0.562640
v 0.673106 0.477944 0.562640
v 0.673106 0.477944 0.562640
v 0.673106 0.477944 0.562640
v 0.673106 0.477944 0.562640
v 1.127326 -0.112954 0.970186
v 1.127326 -0.112954 0.970186
v 1.127326 -0.112954 0.970186
v 1.127326 -0.112954 0.970186
v 1.127326 -0.112954 0.970186
v 1.127326 -0.112954 0.970186
v 0.656709 -0.469900 0.613121
v 0.656709 -0.469900 0.613121
v 0.656709 -0.469900 0.613121
v 0.656709 -0.469900 0.613121
v 0.656709 -0.469900 0.613121
v -0.014958 -0.473597 0.734292
v -0.014958 -0.473597 0.734292
v -0.014958 -0.473597 0.734292
v -0.014958 -0.473597 0.734292
v -0.014958 -0.473597 0.734292
v -1.164520 0.287028 0.860438
v -1.164520 0.287028 0.860438
v -1.164520 0.287028 0.860438
v -1.164520 0.287028 0.860438
v -1.164520 0.287028 0.860438
v -1.164520 0.287028 0.860438
v -1.164520 0.287028 0.860438
v -1.651657 0.371314 0.529327
v -1.651657 0.371314 0.529327
v -1.651657 0.371314 0.529327
v -1.651657 0.371314 0.529327
v -1.367131 1.031171 0.477031
v -1.367131 1.031171 0.477031
v -1.367131 1.031171 0.477031
v -1.367131 1.031171 0.477031
v -1.367131 1.031171 0.477031
v -1.367131 1.031171 0.477031
v -1.920230 0.345880 -0.114109
v -1.920230 0.345880 -0.114109
v -1.920230 0.345880 -0.114109
v -1.920230 0.345880 -0.114109
v -1.920230 0.345880 -0.114109
v -1.888316 -0.187104 -0.357625
v -1.888316 -0.187104 -0.357625
v -1.888316 -0.187104 -0.357625
v -1.888316 -0.187104 -0.357625
v -1.888316 -0.187104 -0.357625
v -1.689903 -0.154848 -0.818336
v -1.689903 -0.154848 -0.818336
v -1.689903 -0.154848 -0.818336
v -1.689903 -0.154848 -0.818336
v -1.689903 -0.154848 -0.818336
v -1.689903 -0.154848 -0.818336
v -1.885702 0.072611 -0.645853
v -1.885702 0.072611 -0.645853
v -1.885702 0.072611 -0.645853
v -1.885702 0.072611 -0.645853
v -1.710932 0.659787 -0.482091
v -1.710932 0.659787 -0.482091
v -1.710932 0.659787 -0.482091
v -1.710932 0.659787 -0.482091
v -1.710932 0.659787 -0.482091
v -1.710932 0.659787 -0.482091
v -1.106005 0.146473 -0.924442
v -1.106005 0.146473 -0.924442
v -1.106005 0.146473 -0.924442
v -1.106005 0.146473 -0.924442
v -1.106005 0.146473 -0.924442
v -1.106005 0.146473 -0.924442
v -0.946177 0.768959 -0.666304
v -0.946177 0.768959 -0.666304
v -0.946177 0.768959 -0.666304
v -0.946177 0.768959 -0.666304
v -0.946177 0.768959 -0.666304
v -0.946177 0.768959 -0.666304
v -0.338902 -0.229632 -1.467368
v -0.338902 -0.229632 -1.467368
v -0.338902 -0.229632 -1.467368
v -0.338902 -0.229632 -1.467368
v -0.338902 -0.229632 -1.467368
v -0.794401 -0.438799 -0.854116
v -0.794401 -0.438799 -0.854116
v -0.794401 -0.438799 -0.854116
v -0.794401 -0.438799 -0.854116
v -0.794401 -0.438799 -0.854116
v -0.794401 -0.438799 -0.854116
v -0.276632 1.230276 -1.090644
v -0.276632 1.230276 -1.090644
v -0.276632 1.230276 -1.090644
v -0.276632 1.230276 -1.090644
v -0.276632 1.230276 -1.090644
v -0.276632 1.230276 -1.090644
v 0.073260 1.256810 -1.176278
v 0.073260 1.256810 -1.176278
v 0.073260 1.256810 -1.176278
v 0.073260 1.256810 -1.176278
v 0.073260 1.256810 -1.176278
v 0.073260 1.256810 -1.176278
v 0.073260 1.256810 -1.176278
v 0.073260 1.256810 -1.176278
v -0.057988 -0.275938 -1.536693
v -0.057988 -0.275938 -1.536693
v -0.057988 -0.275938 -1.536693
v -0.057988 -0.275938 -1.536693
v -0.057988 -0.275938 -1.536693
v -0.057988 -0.275938 -1.536693
v 0.601053 -0.293794 -0.953200
v 0.601053 -0.293794 -0.953200
v 0.601053 -0.293794 -0.953200
v 0.601053 -0.293794 -0.953200
v 0.685125 0.250746 -1.167920
v 0.685125 0.250746 -1.167920
v 0.685125 0.250746 -1.167920
v 0.685125 0.250746 -1.167920
v 0.685125 0.250746 -1.167920
v 1.610682 -0.012730 -0.921818
v 1.610682 -0.012730 -0.921818
v 1.610682 -0.012730 -0.921818
v 1.610682 -0.012730 -0.921818
v 1.610682 -0.012730 -0.921818
v 1.610682 -0.012730 -0.921818
v 1.610682 -0.012730 -0.921818
v 2.792884 -0.398545 -0.448421
v 2.792884 -0.398545 -0.448421
v 2.792884 -0.398545 -0.448421
v 2.792884 -0.398545 -0.448421
v 2.792884 -0.398545 -0.448421
v 2.196216 0.424928 -0.484243
v 2.196216 0.424928 -0.484243
v 2.196216 0.424928 -0.484243
v 2.196216 0.424928 -0.484243
v 2.196216 0.424928 -0.484243
v 2.196216 0.424928 -0.484243
v 2.253343 -0.617136 0.375262
v 2.253343 -0.617136 0.375262
v 2.253343 -0.617136 0.375262
v 2.253343 -0.617136 0.375262
v 2.253343 -0.617136 0.375262
v 2.253343 -0.617136 0.375262
v 2.921243 -0.115656 -0.073171
v 2.921243 -0.115656 -0.073171
v 2.921243 -0.115656 -0.073171
v 2.921243 -0.115656 -0.073171
v 2.366211 0.246413 0.384455
v 2.366211 0.246413 0.384455
v 2.366211 0.246413 0.384455
v 2.366211 0.246413 0.384455
v 2.366211 0.246413 0.384455
v 2.366211 0.246413 0.384455
v 2.366211 0.246413 0.384455
v 1.105680 -0.502341 0.499275
v 1.105680 -0.502341 0.499275
v 1.105680 -0.502341 0.499275
v 1.105680 -0.502341 0.499275
v 1.105680 -0.502341 0.499275
v 1.105680 -0.502341 0.499275
v 1.106616 0.211561 0.927060
v 1.106616 0.211561 0.927060
v 1.106616 0.211561 0.927060
v 1.106616 0.211561 0.927060
v 1.106616 0.211561 0.927060
v 0.403906 0.198261 0.803065
v 0.403906 0.198261 0.803065
v 0.403906 0.198261 0.803065
v 0.403906 0.198261 0.803065
v 0.403906 0.198261 0.803065
v 0.355648 -0.159143 0.826433
v 0.355648 -0.159143 0.826433
v 0.355648 -0.159143 0.826433
v 0.355648 -0.159143 0.826433
v 0.355648 -0.159143 0.826433
v 0.355648 -0.159143 0.826433
v 0.355648 -0.159143 0.826433
v -0.062419 0.622189 0.852386
v -0.062419 0.622189 0.852386
v -0.062419 0.622189 0.852386
v -0.062419 0.622189 0.852386
v -0.062419 0.622189 0.852386
v 0.075346 -0.757385 -0.603530
v 0.075346 -0.757385 -0.603530
v 0.075346 -0.757385 -0.603530
v 0.075346 -0.757385 -0.603530
v 0.075346 -0.757385 -0.603530
v 0.075346 -0.757385 -0.603530
v 0.075346 -0.757385 -0.603530
v 0.075346 -0.757385 -0.603530
v 0.508304 -0.797637 0.047831
v 0.508304 -0.797637 0.047831
v 0.508304 -0.797637 0.047831
v 0.508304 -0.797637 0.047831
v 0.508304 -0.797637 0.047831
v 0.174308 1.463108 -0.639290
v 0.174308 1.463108 -0.639290
v 0.174308 1.463108 -0.639290
v 0.174308 1.463108 -0.639290
v 0.174308 1.463108 -0.639290
v 0.174308 1.463108 -0.639290
v 0.174308 1.463108 -0.639290
v -0.266570 1.439662 -0.749585
v -0.266570 1.439662 -0.749585
v -0.266570 1.439662 -0.749585
v -0.266570 1.439662 -0.749585
v -0.708824 1.165344 -0.118411
v -0.708824 1.165344 -0.118411
v -0.708824 1.165344 -0.118411
v -0.708824 1.165344 -0.118411
v -0.708824 1.165344 -0.118411
v -0.708824 1.165344 -0.118411
v 0.056541 1.206813 0.202914
v 0.056541 1.206813 0.202914
v 0.056541 1.206813 0.202914
v 0.056541 1.206813 0.202914
v 0.056541 1.206813 0.202914
v 0.137167 0.999566 0.604059
v 0.137167 0.999566 0.604059
v 0.137167 0.999566 0.604059
v 0.137167 0.999566 0.604059
v 0.137167 0.999566 0.604059
v 0.137167 0.999566 0.604059
vn -0.5729 -0.1347 0.8085
vn -0.5053 0.2825 0.8154
vn -0.9023 -0.2227 0.3691
vn -0.9127 0.3364 -0.2321
vn -0.5448 -0.7870 -0.2897
vn -0.8235 -0.4177 -0.3839
vn -0.3584 0.3483 -0.8662
vn -0.3398 0.3513 -0.8724
vn -0.1906 0.8994 0.3933
vn -0.2032 0.9354 -0.2893
vn -0.1825 -0.8654 -0.4667
vn -0.3207 -0.8833 0.3421
vn -0.6749 0.4238 -0.6041
vn -0.4805 0.2383 -0.8440
vn -0.2563 -0.8406 -0.4771
vn -0.1951 0.2403 -0.9509
vn 0.3251 0.1900 -0.9264
vn 0.2547 -0.0086 -0.9670
vn 0.1346 -0.3814 -0.9146
vn 0.2584 -0.7777 -0.5731
vn 0.4151 0.7349 -0.5363
vn 0.5264 0.1351 -0.8395
vn 0.4337 0.2770 -0.8574
vn 0.3652 0.9234 0.1183
vn -0.1022 -0.9944 -0.0253
vn 0.6879 -0.6729 0.2720
vn 0.5994 -0.0868 0.7957
vn 0.1671 0.8801 0.4445
vn 0.1044 -0.7688 0.6309
vn 0.1611 -0.4476 0.8796
vn 0.4007 0.3442 0.8491
vn 0.4030 0.3447 0.8478
vn 0.1358 0.4935 0.8591
vn -0.1405 -0.9700 -0.1986
vn 0.2127 -0.9563 -0.2005
vn 0.1948 -0.9188 0.3433
vn -0.1884 0.8394 -0.5098
vn -0.6495 0.7214 -0.2405
vn -0.5754 0.7605 -0.3009
vn -0.1633 0.9500 0.2663
vn 0.5626 0.7384 0.3717
vn 0.5018 0.8055 0.3153
vn -0.0168 0.9959 -0.0884
vn -0.8385 0.5091 0.1943
vn 0.0956 0.8921 0.4417
vn -0.2075 -0.4571 0.8649
vn -0.3956 0.3333 0.8558
vn -0.9006 -0.2035 0.3840
vn -0.5662 -0.7904 0.2338
vn -0.9982 -0.0394 -0.0446
vn -0.2752 -0.8010 -0.5316
vn -0.2689 0.4271 -0.8633
vn -0.4145 0.8418 -0.3457
vn -0.3168 -0.8811 0.3511
vn -0.6524 -0.4229 -0.6289
vn -0.2002 -0.8821 -0.4265
vn -0.2480 0.2520 -0.9354
vn 0.3907 -0.7941 -0.4655
vn 0.2047 0.1164 -0.9719
vn 0.6101 -0.3704 -0.7004
vn -0.0922 -0.1670 -0.9816
vn 0.2248 -0.7363 -0.6382
vn 0.0058 -0.7680 -0.6404
vn 0.6724 0.4620 -0.5783
vn 0.0630 -0.9741 -0.2173
vn 0.1643 0.9121 0.3757
vn 0.5768 0.8151 0.0546
vn -0.0082 -0.7705 0.6374
vn 0.4424 -0.0673 0.8943
vn 0.3880 0.1457 0.9101
vn -0.1887 0.1175 0.9750
vn -0.1747 0.0877 0.9807
vn 0.1454 0.0450 0.9883
vn 0.0150 -0.0252 0.9996
vn -0.0460 -0.2306 0.9720
vn -0.0512 0.1920 0.9801
vn -0.1056 -0.6303 0.7692
vn -0.1342 0.7171 0.6839
vn -0.2241 -0.6357 0.7387
vn 0.1383 -0.6505 0.7468
vn 0.1049 -0.9859 -0.1306
vn 0.1201 -0.9577 0.2616
vn 0.1409 -0.6551 0.7423
vn 0.3441 -0.9267 0.1508
vn 0.4915 0.7574 -0.4299
vn 0.4805 0.7846 -0.3918
vn 0.0419 0.9300 -0.3652
vn -0.7801 0.5432 -0.3105
vn -0.1294 0.9394 0.3176
vn 0.6817 0.6787 0.2734
vn 0.0388 0.9316 0.3614
vt 0.511506 0.026477
vt 0.521615 0.080079
vt 0.456277 0.077246
vt 0.583731 0.090677
vt 0.523067 0.135785
vt 0.464948 0.155314
vt 0.565774 0.184339
vt 0.502185 0.189671
vt 0.473515 0.219500
vt 0.400194 0.170372
vt 0.514654 0.259077
vt 0.609387 0.045708
vt 0.625000 0.096593
vt 0.594612 0.244534
vt 0.420208 0.272496
vt 0.375000 0.234375
vt 0.375000 0.084816
vt 0.375000 0.054518
vt 0.616133 0.343785
vt 0.482965 0.351823
vt 0.469061 0.394174
vt 0.614759 0.398073
vt 0.507994 0.459415
vt 0.538126 0.531501
vt 0.461871 0.545579
vt 0.441230 0.462561
vt 0.406361 0.607098
vt 0.381360 0.383586
vt 0.615892 0.557716
vt 0.522943 0.608182
vt 0.459259 0.618267
vt 0.512473 0.663143
vt 0.449018 0.654893
vt 0.402399 0.675348
vt 0.483013 0.636858
vt 0.593950 0.738821
vt 0.528823 0.730526
vt 0.477917 0.738896
vt 0.395038 0.767178
vt 0.468765 0.814000
vt 0.412090 0.883678
vt 0.623030 0.876903
vt 0.533235 0.811444
vt 0.586227 0.890302
vt 0.601099 0.985832
vt 0.279000 0.523998
vt 0.230054 0.626652
vt 0.130683 0.539986
vt 0.322442 0.632037
vt 0.244941 0.717815
vt 0.786497 0.507126
vt 0.779343 0.545011
vt 0.724177 0.507483
vt 0.865677 0.539506
vt 0.825596 0.581679
vt 0.855731 0.639899
vt 0.761766 0.640095
vt 0.720392 0.560475
vt 0.725606 0.717741
vt 0.854532 0.729640
vt 0.445220 0.010007
vt 0.514478 0.987032
vt 0.398797 0.997739
vt 0.375000 0.930646
vt 0.375000 0.841760
vt 0.395307 0.761571
s 0
f 76/1/1 85/2/1 20/3/1
f 77/1/2 88/4/2 86/2/2
f 18/3/3 95/5/3 99/6/3
f 94/5/4 113/7/4 110/8/4
f 102/6/5 104/9/5 7/10/5
f 100/6/6 111/8/6 103/9/6
f 115/7/7 105/9/7 112/8/7
f 116/7/8 122/11/8 106/9/8
f 27/12/9 34/13/9 92/4/9
f 91/4/10 130/14/10 118/7/10
f 10/10/11 140/15/11 235/16/11
f 22/3/12 1/17/12 12/18/12
f 125/14/13 143/19/13 119/11/13
f 145/19/14 132/20/14 121/11/14
f 138/15/15 133/20/15 156/21/15
f 149/22/16 158/21/16 135/20/16
f 153/22/17 169/23/17 159/21/17
f 168/23/18 38/24/18 174/25/18
f 166/23/19 172/25/19 162/26/19
f 175/25/20 46/27/20 240/28/20
f 39/24/21 50/29/21 184/30/21
f 177/25/22 41/24/22 186/30/22
f 176/25/23 185/30/23 180/31/23
f 49/29/24 201/32/24 183/30/24
f 42/27/25 189/33/25 206/34/25
f 182/31/26 198/35/26 194/33/26
f 196/35/27 205/32/27 193/33/27
f 56/36/28 215/37/28 200/32/28
f 208/34/29 63/38/29 67/39/29
f 70/39/30 228/40/30 75/41/30
f 271/42/31 220/43/31 57/36/31
f 272/42/32 233/44/32 221/43/32
f 270/42/33 31/45/33 231/44/33
f 236/46/34 3/47/34 11/48/34
f 45/27/35 245/49/35 238/46/35
f 244/49/36 210/34/36 17/50/36
f 147/51/37 255/52/37 150/53/37
f 126/54/38 259/55/38 144/51/38
f 127/54/39 32/56/39 260/55/39
f 261/55/40 264/57/40 247/58/40
f 53/29/41 252/58/41 58/36/41
f 251/58/42 268/57/42 273/59/42
f 35/56/43 265/57/43 263/55/43
s 1
f 114/7/44 97/5/44 84/2/44
f 114/7/44 84/2/44 87/4/44
s 0
f 267/57/45 30/60/45 269/59/45
f 72/61/46 79/1/46 25/3/46
f 78/1/47 26/12/47 90/4/47
f 19/3/48 83/2/48 96/5/48
f 21/3/49 101/6/49 6/10/49
f 98/6/50 93/5/50 109/8/50
f 9/10/51 107/9/51 137/15/51
f 117/7/52 129/14/52 123/11/52
f 89/4/53 33/13/53 128/14/53
f 23/3/54 8/10/54 2/17/54
s 1
f 136/15/55 120/11/55 131/20/55
s 0
f 234/28/56 139/15/56 157/21/56
f 134/20/57 146/19/57 148/22/57
f 241/28/58 160/21/58 164/26/58
f 152/22/59 37/24/59 167/23/59
f 161/21/60 170/23/60 165/26/60
f 108/9/61 124/11/61 141/15/61
f 163/26/62 173/25/62 239/28/62
s 1
f 171/25/63 178/31/63 43/27/63
s 0
f 181/31/64 188/30/64 197/35/64
f 44/27/65 179/31/65 191/33/65
f 48/29/66 55/36/66 199/32/66
f 195/35/67 187/30/67 204/32/67
f 207/34/68 190/33/68 62/38/68
f 192/33/69 203/32/69 65/38/69
f 202/32/70 216/37/70 64/38/70
f 212/37/71 222/40/71 60/38/71
f 213/37/72 217/43/72 223/40/72
f 219/43/73 232/44/73 227/40/73
f 230/44/74 82/62/74 226/40/74
f 225/40/75 81/62/75 73/41/75
f 229/44/76 28/45/76 80/62/76
f 66/39/77 61/38/77 224/40/77
s 1
f 214/37/78 54/36/78 218/43/78
f 71/41/79 24/63/79 13/64/79
s 0
f 68/39/80 74/41/80 15/65/80
f 237/46/81 242/49/81 4/47/81
f 5/47/82 243/49/82 14/50/82
f 16/50/83 209/34/83 69/66/83
f 246/49/84 47/27/84 211/34/84
f 40/24/85 155/53/85 52/29/85
f 154/53/86 250/58/86 51/29/86
f 151/53/87 257/52/87 249/58/87
f 142/51/88 258/55/88 254/52/88
f 256/52/89 262/55/89 248/58/89
f 253/58/90 274/59/90 59/36/90
f 266/57/91 36/56/91 29/60/91
