# Blender 4.0.2
# www.blender.org
o cloud2
v -1.402875 -0.566092 -0.040948
v -1.402875 -0.566092 -0.040948
v -1.402875 -0.566092 -0.040948
v -1.402875 -0.566092 -0.040948
v -1.402875 -0.566092 -0.040948
v -1.402875 -0.566092 -0.040948
v -1.402875 -0.566092 -0.040948
v -1.402875 -0.566092 -0.040948
v -0.098010 -0.847269 0.196850
v -0.098010 -0.847269 0.196850
v -0.098010 -0.847269 0.196850
v -0.098010 -0.847269 0.196850
v -0.065666 -0.622189 0.658241
v -0.065666 -0.622189 0.658241
v -0.065666 -0.622189 0.658241
v -0.065666 -0.622189 0.658241
v -0.065666 -0.622189 0.658241
v -0.065666 -0.622189 0.658241
v -1.234008 -0.081242 0.719067
v -1.234008 -0.081242 0.719067
v -1.234008 -0.081242 0.719067
v -1.234008 -0.081242 0.719067
v -1.234008 -0.081242 0.719067
v -1.234008 -0.081242 0.719067
v -1.146701 1.026159 0.449996
v -1.146701 1.026159 0.449996
v -1.146701 1.026159 0.449996
v -1.146701 1.026159 0.449996
v -1.146701 1.026159 0.449996
v -1.081726 0.696516 -0.971478
v -1.081726 0.696516 -0.971478
v -1.081726 0.696516 -0.971478
v -1.081726 0.696516 -0.971478
v -1.081726 0.696516 -0.971478
v -1.081726 0.696516 -0.971478
v -1.045146 -0.523515 -0.663142
v -1.045146 -0.523515 -0.663142
v -1.045146 -0.523515 -0.663142
v -1.045146 -0.523515 -0.663142
v -1.045146 -0.523515 -0.663142
v -1.045146 -0.523515 -0.663142
v 0.698564 1.120780 -0.818729
v 0.698564 1.120780 -0.818729
v 0.698564 1.120780 -0.818729
v 0.698564 1.120780 -0.818729
v 0.698564 1.120780 -0.818729
v 0.698564 1.120780 -0.818729
v 0.915247 0.677324 -1.116248
v 0.915247 0.677324 -1.116248
v 0.915247 0.677324 -1.116248
v 0.915247 0.677324 -1.116248
v 0.915247 0.677324 -1.116248
v 0.915247 0.677324 -1.116248
v 0.492293 0.853676 0.506716
v 0.492293 0.853676 0.506716
v 0.492293 0.853676 0.506716
v 0.492293 0.853676 0.506716
v 0.492293 0.853676 0.506716
v 0.492293 0.853676 0.506716
v 1.046066 -0.186244 0.985977
v 1.046066 -0.186244 0.985977
v 1.046066 -0.186244 0.985977
v 1.046066 -0.186244 0.985977
v 1.046066 -0.186244 0.985977
v 1.046066 -0.186244 0.985977
v -0.207599 1.151269 0.609045
v -0.207599 1.151269 0.609045
v -0.207599 1.151269 0.609045
v -0.207599 1.151269 0.609045
v -0.207599 1.151269 0.609045
v -0.207599 1.151269 0.609045
v -1.722774 0.153497 0.525153
v -1.722774 0.153497 0.525153
v -1.722774 0.153497 0.525153
v -1.722774 0.153497 0.525153
v -1.127162 0.840765 0.750648
v -1.127162 0.840765 0.750648
v -1.127162 0.840765 0.750648
v -1.127162 0.840765 0.750648
v -1.127162 0.840765 0.750648
v -1.127162 0.840765 0.750648
v -1.127162 0.840765 0.750648
v -2.435078 0.428489 -0.386506
v -2.435078 0.428489 -0.386506
v -2.435078 0.428489 -0.386506
v -2.435078 0.428489 -0.386506
v -2.435078 0.428489 -0.386506
v -2.435078 0.428489 -0.386506
v -2.119022 -0.204400 -0.705615
v -2.119022 -0.204400 -0.705615
v -2.119022 -0.204400 -0.705615
v -2.119022 -0.204400 -0.705615
v -2.119022 -0.204400 -0.705615
v -2.465372 0.366744 -0.999227
v -2.465372 0.366744 -0.999227
v -2.465372 0.366744 -0.999227
v -2.465372 0.366744 -0.999227
v -2.465372 0.366744 -0.999227
v -2.106912 0.980186 -0.708501
v -2.106912 0.980186 -0.708501
v -2.106912 0.980186 -0.708501
v -2.106912 0.980186 -0.708501
v -2.106912 0.980186 -0.708501
v -2.106912 0.980186 -0.708501
v -2.106912 0.980186 -0.708501
v -2.057213 0.530719 -1.401692
v -2.057213 0.530719 -1.401692
v -2.057213 0.530719 -1.401692
v -2.057213 0.530719 -1.401692
v -1.947216 0.058667 -1.395717
v -1.947216 0.058667 -1.395717
v -1.947216 0.058667 -1.395717
v -1.947216 0.058667 -1.395717
v -1.947216 0.058667 -1.395717
v -1.947216 0.058667 -1.395717
v -1.124370 0.110918 -1.068144
v -1.124370 0.110918 -1.068144
v -1.124370 0.110918 -1.068144
v -1.124370 0.110918 -1.068144
v -1.124370 0.110918 -1.068144
v -0.138531 1.279307 -1.264649
v -0.138531 1.279307 -1.264649
v -0.138531 1.279307 -1.264649
v -0.138531 1.279307 -1.264649
v -0.138531 1.279307 -1.264649
v -0.138531 1.279307 -1.264649
v -0.138531 1.279307 -1.264649
v -0.138531 1.279307 -1.264649
v -0.138531 1.279307 -1.264649
v -0.190506 -0.288610 -1.448746
v -0.190506 -0.288610 -1.448746
v -0.190506 -0.288610 -1.448746
v -0.190506 -0.288610 -1.448746
v -0.190506 -0.288610 -1.448746
v -0.190506 -0.288610 -1.448746
v -0.190506 -0.288610 -1.448746
v 0.025850 -0.049646 -1.448152
v 0.025850 -0.049646 -1.448152
v 0.025850 -0.049646 -1.448152
v 0.025850 -0.049646 -1.448152
v 0.675778 -0.350925 -0.883899
v 0.675778 -0.350925 -0.883899
v 0.675778 -0.350925 -0.883899
v 0.675778 -0.350925 -0.883899
v 0.879994 0.077757 -1.072083
v 0.879994 0.077757 -1.072083
v 0.879994 0.077757 -1.072083
v 0.879994 0.077757 -1.072083
v 0.879994 0.077757 -1.072083
v 0.879994 0.077757 -1.072083
v 0.879994 0.077757 -1.072083
v 1.781926 0.549467 -1.414872
v 1.781926 0.549467 -1.414872
v 1.781926 0.549467 -1.414872
v 1.781926 0.549467 -1.414872
v 1.781926 0.549467 -1.414872
v 2.179613 0.064620 -1.102552
v 2.179613 0.064620 -1.102552
v 2.179613 0.064620 -1.102552
v 2.179613 0.064620 -1.102552
v 2.179613 0.064620 -1.102552
v 2.509812 0.409045 -1.001328
v 2.509812 0.409045 -1.001328
v 2.509812 0.409045 -1.001328
v 2.509812 0.409045 -1.001328
v 2.509812 0.409045 -1.001328
v 1.786907 1.252814 -0.694770
v 1.786907 1.252814 -0.694770
v 1.786907 1.252814 -0.694770
v 1.786907 1.252814 -0.694770
v 1.786907 1.252814 -0.694770
v 1.786907 1.252814 -0.694770
v 2.712976 -0.150041 0.156373
v 2.712976 -0.150041 0.156373
v 2.712976 -0.150041 0.156373
v 2.712976 -0.150041 0.156373
v 2.712976 -0.150041 0.156373
v 2.712976 -0.150041 0.156373
v 2.288350 1.000318 -0.002502
v 2.288350 1.000318 -0.002502
v 2.288350 1.000318 -0.002502
v 2.288350 1.000318 -0.002502
v 2.288350 1.000318 -0.002502
v 1.431261 1.416401 -0.249251
v 1.431261 1.416401 -0.249251
v 1.431261 1.416401 -0.249251
v 1.431261 1.416401 -0.249251
v 1.431261 1.416401 -0.249251
v 1.431261 1.416401 -0.249251
v 1.552796 -0.366975 -0.568383
v 1.552796 -0.366975 -0.568383
v 1.552796 -0.366975 -0.568383
v 1.552796 -0.366975 -0.568383
v 1.552796 -0.366975 -0.568383
v 1.552796 -0.366975 -0.568383
v 1.552796 -0.366975 -0.568383
v 1.078001 -0.605447 0.228401
v 1.078001 -0.605447 0.228401
v 1.078001 -0.605447 0.228401
v 1.078001 -0.605447 0.228401
v 1.078001 -0.605447 0.228401
v 1.078001 -0.605447 0.228401
v 1.078001 -0.605447 0.228401
v 2.372984 -0.199386 0.404174
v 2.372984 -0.199386 0.404174
v 2.372984 -0.199386 0.404174
v 2.372984 -0.199386 0.404174
v 2.372984 -0.199386 0.404174
v 1.769603 0.860756 0.734066
v 1.769603 0.860756 0.734066
v 1.769603 0.860756 0.734066
v 1.769603 0.860756 0.734066
v 1.769603 0.860756 0.734066
v 1.769603 0.860756 0.734066
v 1.224523 1.020254 0.683474
v 1.224523 1.020254 0.683474
v 1.224523 1.020254 0.683474
v 1.224523 1.020254 0.683474
v 1.224523 1.020254 0.683474
v 1.224523 1.020254 0.683474
v 0.577049 -0.431952 0.684040
v 0.577049 -0.431952 0.684040
v 0.577049 -0.431952 0.684040
v 0.577049 -0.431952 0.684040
v 0.369215 -0.049369 0.854120
v 0.369215 -0.049369 0.854120
v 0.369215 -0.049369 0.854120
v 0.369215 -0.049369 0.854120
v 0.369215 -0.049369 0.854120
v 0.369215 -0.049369 0.854120
v 0.369215 -0.049369 0.854120
v -0.108096 0.576818 0.887691
v -0.108096 0.576818 0.887691
v -0.108096 0.576818 0.887691
v -0.108096 0.576818 0.887691
v -0.108096 0.576818 0.887691
v 0.187546 -0.858366 -0.289493
v 0.187546 -0.858366 -0.289493
v 0.187546 -0.858366 -0.289493
v 0.187546 -0.858366 -0.289493
v 0.187546 -0.858366 -0.289493
v 0.187546 -0.858366 -0.289493
v 0.187546 -0.858366 -0.289493
v -0.283980 1.464818 -0.969805
v -0.283980 1.464818 -0.969805
v -0.283980 1.464818 -0.969805
v -0.283980 1.464818 -0.969805
v -1.085653 1.006934 -0.576869
v -1.085653 1.006934 -0.576869
v -1.085653 1.006934 -0.576869
v -1.085653 1.006934 -0.576869
v -1.085653 1.006934 -0.576869
v -1.085653 1.006934 -0.576869
v 0.061106 1.521995 -0.807474
v 0.061106 1.521995 -0.807474
v 0.061106 1.521995 -0.807474
v 0.061106 1.521995 -0.807474
v 0.061106 1.521995 -0.807474
v 0.061106 1.521995 -0.807474
v -0.692390 1.240740 -0.148518
v -0.692390 1.240740 -0.148518
v -0.692390 1.240740 -0.148518
v -0.692390 1.240740 -0.148518
v -0.692390 1.240740 -0.148518
v -0.692390 1.240740 -0.148518
v 0.451437 1.120242 -0.037950
v 0.451437 1.120242 -0.037950
v 0.451437 1.120242 -0.037950
v 0.451437 1.120242 -0.037950
v 0.451437 1.120242 -0.037950
v 0.451437 1.120242 -0.037950
v 0.045753 1.190192 0.258276
v 0.045753 1.190192 0.258276
v 0.045753 1.190192 0.258276
v 0.045753 1.190192 0.258276
v 0.045753 1.190192 0.258276
vn -0.6101 0.6375 0.4705
vn -0.5805 0.6757 0.4544
vn -0.6952 -0.5688 0.4395
vn -0.8616 0.5075 -0.0085
vn -0.2699 -0.9376 -0.2194
vn -0.6756 -0.6171 -0.4034
vn -0.2468 -0.8835 -0.3982
vn -0.6588 -0.1628 -0.7345
vn 0.0589 0.7849 -0.6168
vn 0.3518 -0.4721 -0.8083
vn -0.2649 -0.8592 0.4377
vn -0.5607 0.6481 -0.5154
vn -0.3299 0.1209 -0.9363
vn -0.1297 0.1199 -0.9843
vn 0.2619 -0.8296 -0.4931
vn 0.4197 -0.3780 -0.8252
vn 0.2271 0.1607 -0.9605
vn 0.3600 0.1264 -0.9244
vn -0.5959 0.5137 -0.6172
vn 0.1821 -0.8167 -0.5476
vn 0.2859 -0.4961 -0.8199
vn -0.0251 -0.5558 -0.8309
vn -0.1338 0.7094 -0.6920
vn 0.0253 0.5655 -0.8244
vn 0.3535 -0.8857 -0.3008
vn 0.1653 -0.9858 0.0305
vn 0.3207 -0.9428 -0.0910
vn 0.3114 0.8692 0.3840
vn 0.7330 0.3510 0.5827
vn 0.4004 -0.0567 0.9146
vn 0.1410 -0.8637 0.4839
vn -0.0181 0.2457 0.9692
vn 0.0729 -0.3718 0.9254
vn -0.0755 -0.2709 0.9597
vn -0.0811 -0.1149 0.9901
vn -0.1338 0.2596 0.9564
vn -0.2976 0.3778 0.8767
vn -0.2054 -0.9613 -0.1839
vn -0.1938 -0.9768 -0.0915
vn 0.1960 -0.9710 0.1372
vn 0.2174 -0.8085 0.5468
vn -0.5006 0.8656 -0.0128
vn 0.5273 0.8330 0.1675
vn 0.4162 0.8286 0.3743
vn 0.0052 0.9935 0.1140
vn -0.1652 0.9616 0.2193
vn 0.0912 0.8625 -0.4977
vn -0.1990 0.8283 0.5237
vn -0.2986 0.8482 0.4375
vn -0.2028 0.9167 0.3444
vn -0.3645 0.0103 0.9312
vn -0.5287 -0.6574 0.5369
vn -0.7060 -0.6044 0.3693
vn -0.6729 0.3737 0.6384
vn -0.8717 -0.4815 0.0916
vn -0.0236 0.9995 -0.0201
vn -0.6712 0.5991 -0.4366
vn 0.0943 0.8384 -0.5369
vn -0.1378 -0.0179 0.9903
vn -0.4741 0.8793 -0.0446
vn 0.3909 0.0795 -0.9170
vn -0.3243 -0.7632 0.5589
vn -0.5026 -0.5089 -0.6989
vn -0.3905 0.1776 -0.9033
vn 0.4369 -0.5279 -0.7283
vn 0.4126 -0.0910 -0.9063
vn 0.4525 0.6387 -0.6224
vn -0.3319 -0.0499 -0.9420
vn -0.0228 -0.7644 -0.6444
vn 0.4585 -0.1840 -0.8694
vn 0.4722 0.6290 -0.6176
vn -0.0669 0.9182 -0.3905
vn 0.7173 -0.5698 -0.4010
vn 0.6884 0.6808 -0.2503
vn 0.4332 0.9012 0.0149
vn 0.9380 0.3466 0.0028
vn 0.3099 -0.9457 -0.0984
vn 0.2183 0.8799 0.4221
vn 0.5798 0.0776 0.8110
vn 0.2023 -0.8532 0.4807
vn -0.2625 -0.5075 0.8207
vn 0.4215 0.2750 0.8641
vn -0.0083 0.4352 0.9003
vn 0.3162 0.4578 0.8309
vn 0.1717 -0.8901 0.4222
vn -0.1233 -0.9059 -0.4050
vn -0.2292 0.9620 0.1485
vn -0.0972 0.9507 0.2946
vn 0.3594 0.8895 0.2821
vn 0.4082 0.8270 0.3866
vn 0.4331 0.7040 -0.5628
vn -0.3070 0.9468 -0.0965
vt 0.577800 0.036690
vt 0.560286 0.177178
vt 0.508100 0.139027
vt 0.604786 0.087562
vt 0.450035 0.171005
vt 0.402460 0.132088
vt 0.503985 0.180335
vt 0.413357 0.246416
vt 0.487104 0.225616
vt 0.527337 0.218487
vt 0.613148 0.215657
vt 0.565485 0.260764
vt 0.499241 0.270980
vt 0.375000 0.081293
vt 0.375000 0.054451
vt 0.605489 0.370103
vt 0.454989 0.360957
vt 0.498112 0.388438
vt 0.375659 0.395753
vt 0.432255 0.460330
vt 0.489222 0.484312
vt 0.551612 0.497045
vt 0.625000 0.343127
vt 0.427413 0.575416
vt 0.518673 0.549517
vt 0.481115 0.570593
vt 0.559417 0.581831
vt 0.635545 0.544136
vt 0.487490 0.633970
vt 0.473377 0.656355
vt 0.277585 0.581285
vt 0.386440 0.670342
vt 0.591976 0.601887
vt 0.537310 0.676386
vt 0.536425 0.630787
vt 0.481914 0.734579
vt 0.412413 0.772751
vt 0.580793 0.682883
vt 0.508033 0.812631
vt 0.393516 0.860340
vt 0.461932 0.993603
vt 0.567015 0.895142
vt 0.645565 0.726778
vt 0.129207 0.588635
vt 0.159012 0.526502
vt 0.231411 0.655643
vt 0.240016 0.723465
vt 0.863749 0.545400
vt 0.827249 0.597260
vt 0.775499 0.527431
vt 0.724081 0.549856
vt 0.670151 0.621777
vt 0.749828 0.661386
vt 0.659741 0.713058
vt 0.793209 0.718605
vt 0.869251 0.671606
vt 0.729218 0.500000
vt 0.874500 0.731026
vt 0.466725 0.033219
vt 0.494301 0.074592
vt 0.542200 0.000000
vt 0.625000 0.145859
vt 0.504635 0.584254
vt 0.621263 0.874769
vt 0.602742 0.999046
vt 0.238207 0.500000
s 0
f 77/1/1 101/2/1 88/3/1
f 78/1/2 25/4/2 102/2/2
f 86/3/3 90/5/3 2/6/3
f 84/3/4 99/2/4 95/7/4
f 5/6/5 92/5/5 37/8/5
f 91/5/6 96/7/6 110/9/6
f 93/5/7 112/9/7 38/8/7
f 98/7/8 107/10/8 111/9/8
f 253/11/9 32/12/9 104/2/9
f 113/9/10 119/13/10 41/8/10
f 6/6/11 9/14/11 14/15/11
f 249/11/12 122/16/12 30/12/12
f 118/13/13 124/16/13 131/17/13
f 125/16/14 137/18/14 132/17/14
f 242/19/15 134/17/15 142/20/15
f 140/18/16 150/21/16 135/17/16
f 127/16/17 51/22/17 138/18/17
f 114/9/18 34/12/18 120/13/18
f 244/23/19 121/16/19 248/11/19
f 141/20/20 192/24/20 240/19/20
f 148/21/21 193/24/21 143/20/21
f 154/25/22 157/26/22 146/21/22
f 49/22/23 167/27/23 153/25/23
f 50/22/24 44/28/24 169/27/24
f 159/26/25 174/29/25 196/24/25
f 173/29/26 204/30/26 191/24/26
f 243/31/27 195/24/27 203/32/27
f 188/33/28 211/34/28 179/35/28
f 182/35/29 214/34/29 177/29/29
f 212/34/30 65/36/30 207/30/30
s 1
f 197/32/31 63/36/31 223/37/31
s 0
f 209/34/32 219/38/32 62/36/32
f 230/39/33 16/40/33 222/37/33
f 229/39/34 24/41/34 15/40/34
f 233/42/35 23/41/35 228/39/35
f 218/38/36 227/39/36 61/36/36
f 55/43/37 225/39/37 216/38/37
f 237/31/38 7/44/38 39/45/38
f 238/31/39 10/46/39 8/44/39
f 241/31/40 199/32/40 12/46/40
f 201/32/41 224/37/41 18/47/41
f 250/48/42 260/49/42 245/50/42
f 47/28/43 259/51/43 271/52/43
f 270/52/44 276/53/44 58/54/44
f 265/49/45 69/55/45 273/53/45
f 263/49/46 28/56/46 67/55/46
f 126/57/47 247/50/47 256/51/47
f 27/56/48 80/58/48 66/55/48
f 267/52/49 54/54/49 215/38/49
f 268/52/50 217/38/50 185/33/50
f 20/59/51 79/1/51 75/60/51
f 19/59/52 74/60/52 3/6/52
f 72/60/53 85/3/53 1/6/53
f 73/60/54 76/1/54 87/3/54
f 83/3/55 94/7/55 89/5/55
f 103/2/56 29/4/56 252/11/56
f 97/7/57 100/2/57 106/10/57
f 105/2/58 33/12/58 108/10/58
f 232/61/59 81/1/59 22/59/59
f 26/4/60 261/62/60 251/11/60
f 109/10/61 35/12/61 115/9/61
f 21/59/62 4/6/62 13/15/62
f 36/8/63 116/13/63 130/17/63
f 31/12/64 123/16/64 117/13/64
f 136/17/65 151/21/65 144/20/65
f 139/18/66 52/22/66 149/21/66
f 53/22/67 129/16/67 46/28/67
f 145/21/68 48/22/68 152/25/68
f 147/21/69 158/26/69 190/24/69
f 155/25/70 162/63/70 160/26/70
f 156/25/71 171/27/71 163/63/71
f 168/27/72 43/28/72 186/33/72
f 161/26/73 165/63/73 176/29/73
f 164/63/74 172/27/74 181/35/74
f 170/27/75 189/33/75 180/35/75
f 178/29/76 166/63/76 183/35/76
f 194/24/77 206/30/77 202/32/77
f 187/33/78 220/38/78 210/34/78
f 175/29/79 213/34/79 208/30/79
f 200/32/80 205/30/80 64/36/80
s 1
f 221/37/81 60/36/81 226/39/81
s 0
f 59/43/82 236/42/82 231/39/82
f 234/42/83 68/64/83 82/65/83
f 56/43/84 70/64/84 235/42/84
f 11/46/85 198/32/85 17/47/85
f 133/66/86 239/31/86 40/45/86
f 246/50/87 262/49/87 254/51/87
f 255/51/88 264/49/88 272/53/88
f 269/52/89 257/51/89 274/53/89
f 57/54/90 275/53/90 71/55/90
f 128/57/91 258/51/91 45/28/91
f 184/33/92 42/28/92 266/52/92
